<?xml version="1.0" encoding="UTF-8" standalone="no"?>
<!-- Uploaded to: SVG Repo, www.svgrepo.com, Transformed by: SVG Repo Mixer Tools -->

<svg
   width="225px"
   height="225px"
   viewBox="0 0 64.00 64.00"
   data-name="Layer 1"
   id="Layer_1"
   version="1.1"
   sodipodi:docname="logo.svg"
   inkscape:version="1.4.3 (0d15f75, 2025-12-25)"
   inkscape:export-filename="logo96x96.png"
   inkscape:export-xdpi="40.959999"
   inkscape:export-ydpi="40.959999"
   xmlns:inkscape="http://www.inkscape.org/namespaces/inkscape"
   xmlns:sodipodi="http://sodipodi.sourceforge.net/DTD/sodipodi-0.dtd"
   xmlns:xlink="http://www.w3.org/1999/xlink"
   xmlns="http://www.w3.org/2000/svg"
   xmlns:svg="http://www.w3.org/2000/svg">
  <defs
     id="defs4">
    <linearGradient
       id="linearGradient4"
       inkscape:collect="always">
      <stop
         style="stop-color:#000000;stop-opacity:1;"
         offset="0"
         id="stop4" />
      <stop
         style="stop-color:#000000;stop-opacity:0;"
         offset="1"
         id="stop5" />
    </linearGradient>
    <linearGradient
       inkscape:collect="always"
       xlink:href="#linearGradient4"
       id="linearGradient5"
       x1="45.550519"
       y1="44.481425"
       x2="60.154161"
       y2="44.481425"
       gradientUnits="userSpaceOnUse" />
  </defs>
  <sodipodi:namedview
     id="namedview4"
     pagecolor="#ffffff"
     bordercolor="#000000"
     borderopacity="0.25"
     inkscape:showpageshadow="2"
     inkscape:pageopacity="0.0"
     inkscape:pagecheckerboard="0"
     inkscape:deskcolor="#d1d1d1"
     showgrid="false"
     inkscape:zoom="1.8683333"
     inkscape:cx="54.594113"
     inkscape:cy="86.975916"
     inkscape:window-width="1920"
     inkscape:window-height="1009"
     inkscape:window-x="4472"
     inkscape:window-y="182"
     inkscape:window-maximized="1"
     inkscape:current-layer="SVGRepo_iconCarrier"
     inkscape:export-bgcolor="#ffffff00" />
  <g
     id="SVGRepo_bgCarrier"
     stroke-width="0" />
  <g
     id="SVGRepo_tracerCarrier"
     stroke-linecap="round"
     stroke-linejoin="round"
     stroke="#CCCCCC"
     stroke-width="2.048" />
  <g
     id="SVGRepo_iconCarrier"
     transform="matrix(0,1,1,0,0.00857583,-0.008576)">
    <defs
       id="defs1">
      <style
         id="style1">.cls-1{fill:#FFBE00;}.cls-2{fill:#00B5FF;}</style>
    </defs>
    <title
       id="title1" />
    <path
       class="cls-1"
       d="M 26.029839,26.312902 H 9.7435051 A 2.1715111,2.1715111 0 0 1 7.5719938,24.141391 V 4.120058 A 2.1715111,2.1715111 0 0 1 9.7435051,1.9485468 H 26.029839 a 2.1715111,2.1715111 0 0 1 2.17151,2.1715112 v 10.672978 a 2.1715111,2.1715111 0 0 1 -4.343021,0 V 6.2915692 H 11.915016 V 21.969879 h 11.943312 v -0.195435 a 2.1715111,2.1715111 0 0 1 4.343021,0 v 2.366947 a 2.1715111,2.1715111 0 0 1 -2.17151,2.171511 z"
       id="path1"
       style="stroke-width:1.08576" />
    <path
       class="cls-2"
       d="M 53.857754,26.312902 H 34.042715 A 2.1715111,2.1715111 0 0 1 31.871204,24.141391 V 4.120058 a 2.1715111,2.1715111 0 0 1 2.171511,-2.1715112 h 19.815039 a 2.1715111,2.1715111 0 0 1 2.171511,2.1715112 v 20.021333 a 2.1715111,2.1715111 0 0 1 -2.171511,2.171511 z M 36.214226,21.969879 H 51.686243 V 6.2915692 H 36.214226 Z"
       id="path2"
       style="stroke-width:1.08576" />
    <path
       class="cls-2"
       d="M 33.53241,59.775888 H 9.7543626 A 2.1715111,2.1715111 0 0 1 7.5828514,57.604377 V 31.947973 a 2.1715111,2.1715111 0 0 1 2.1715112,-2.171511 h 3.5938504 a 2.1715115,2.1715115 0 1 1 0,4.343023 H 11.925874 V 55.432866 H 31.360899 V 34.119485 H 20.02561 a 2.1715115,2.1715115 0 0 1 0,-4.343023 h 13.5068 a 2.1715111,2.1715111 0 0 1 2.171511,2.171511 v 25.656404 a 2.1715111,2.1715111 0 0 1 -2.171511,2.171511 z"
       id="path3"
       style="stroke-width:1.08576" />
    <path
       class="cls-2"
       d="M 53.857754,59.775888 H 40.926405 A 2.1715111,2.1715111 0 0 1 38.754894,57.604377 V 31.947973 a 2.1715111,2.1715111 0 0 1 2.171511,-2.171511 h 12.931349 a 2.1715111,2.1715111 0 0 1 2.171511,2.171511 v 16.188616 a 2.1715112,2.1715112 0 0 1 -4.343022,0 V 34.119485 h -8.588326 v 21.313381 h 8.610042 a 2.17761,2.17761 0 0 1 4.343021,0.325727 v 1.845784 a 2.1715111,2.1715111 0 0 1 -2.193226,2.171511 z"
       id="path4"
       style="stroke-width:1.08576" />
    <text
       xml:space="preserve"
       style="font-style:normal;font-variant:normal;font-weight:bold;font-stretch:normal;font-size:61.2462px;font-family:'Yu Gothic UI';-inkscape-font-specification:'Yu Gothic UI Bold';text-align:center;writing-mode:lr-tb;direction:ltr;text-anchor:middle;fill:#ffbe00;fill-opacity:1;stroke:#000000;stroke-width:0;stroke-dasharray:none;stroke-opacity:1"
       x="50.127083"
       y="53.437038"
       id="text4"
       transform="matrix(0,1,1,0,0,0)"
       inkscape:label="2"><tspan
         sodipodi:role="line"
         id="tspan4"
         style="font-style:normal;font-variant:normal;font-weight:bold;font-stretch:normal;font-size:61.2462px;font-family:'Yu Gothic UI';-inkscape-font-specification:'Yu Gothic UI Bold';fill:#ffbe00;fill-opacity:1;stroke:#000000;stroke-width:0;stroke-dasharray:none;stroke-opacity:1"
         x="50.127083"
         y="53.437038">2</tspan></text>
  </g>
</svg>
